<mxfile host="Electron" modified="2023-05-20T12:49:43.369Z" agent="Mozilla/5.0 (Windows NT 10.0; Win64; x64) AppleWebKit/537.36 (KHTML, like Gecko) draw.io/21.2.8 Chrome/112.0.5615.165 Electron/24.2.0 Safari/537.36" etag="fBxBT2Y0QZlZtMNrHPJ1" version="21.2.8" type="device">
  <diagram id="C5RBs43oDa-KdzZeNtuy" name="Page-1">
    <mxGraphModel dx="4172" dy="1685" grid="1" gridSize="10" guides="1" tooltips="1" connect="1" arrows="1" fold="1" page="1" pageScale="1" pageWidth="827" pageHeight="1169" math="0" shadow="0">
      <root>
        <mxCell id="WIyWlLk6GJQsqaUBKTNV-0" />
        <mxCell id="WIyWlLk6GJQsqaUBKTNV-1" parent="WIyWlLk6GJQsqaUBKTNV-0" />
        <mxCell id="b2iUpGE4gWwmAra18Ms8-0" style="edgeStyle=orthogonalEdgeStyle;rounded=0;orthogonalLoop=1;jettySize=auto;html=1;" edge="1" parent="WIyWlLk6GJQsqaUBKTNV-1" source="t22loXEwvGYVSL7xWseN-0" target="t22loXEwvGYVSL7xWseN-1">
          <mxGeometry relative="1" as="geometry" />
        </mxCell>
        <UserObject label="&lt;div style=&quot;&quot;&gt;&lt;font style=&quot;direction: ltr; letter-spacing: 0px; line-height: 120%; opacity: 1; font-size: 11.29px;&quot;&gt;start&lt;/font&gt;&lt;/div&gt;" Function="EN_DIO_Error_T DIO_init(uint8_t pinNumber, EN_DIO_PORT_T portNumber, EN_DIO_DIRECTION_T direction);" tags="Flowchart" id="t22loXEwvGYVSL7xWseN-0">
          <mxCell style="verticalAlign=middle;align=center;overflow=width;vsdxID=30;fillColor=#dae8fc;shape=stencil(tVLREoIgEPwaHnEQxsl3s/9gEpSJwDko7e+DsEkze2l627vdu5uFRaxyHe8FosR5sCcxqMZ3iO0Rpcp0ApQPCLEasUpaEC3Yi2lS3fOojOhsr3HDmObyMtsVcYqS29Qh5FEfklwrM5OXeUa/yjkcAwfr7TDpiyTfXvjkMR+Vw2A998qaBac5tAKHU1hq3i4oNwjRr9ofvayt/+Rk+yX/4iWA159KpXWKxJx/z0Bopfyw+g4=);strokeColor=#6c8ebf;spacingTop=-1;spacingBottom=-1;spacingLeft=-1;spacingRight=-1;points=[[0.5,1,0],[0.5,0,0],[0,0.5,0],[1,0.5,0]];labelBackgroundColor=none;rounded=1;html=1;whiteSpace=wrap;fontFamily=Calibri;" parent="WIyWlLk6GJQsqaUBKTNV-1" vertex="1">
            <mxGeometry x="-3219.5" y="-1092" width="101" height="38" as="geometry" />
          </mxCell>
        </UserObject>
        <mxCell id="b2iUpGE4gWwmAra18Ms8-1" style="edgeStyle=orthogonalEdgeStyle;rounded=0;orthogonalLoop=1;jettySize=auto;html=1;exitX=1;exitY=0.5;exitDx=0;exitDy=0;entryX=0;entryY=0.5;entryDx=0;entryDy=0;entryPerimeter=0;" edge="1" parent="WIyWlLk6GJQsqaUBKTNV-1" source="t22loXEwvGYVSL7xWseN-1" target="t22loXEwvGYVSL7xWseN-4">
          <mxGeometry relative="1" as="geometry" />
        </mxCell>
        <mxCell id="t22loXEwvGYVSL7xWseN-1" value="&lt;font style=&quot;font-size: 11.29px;&quot;&gt;setCursor(0,0)&lt;br&gt;Display(&quot;Speed:&quot;)&lt;br&gt;setCursor(0,7)&lt;br&gt;&lt;/font&gt;" style="rounded=0;whiteSpace=wrap;html=1;fontSize=16;fillColor=#d5e8d4;strokeColor=#82b366;" parent="WIyWlLk6GJQsqaUBKTNV-1" vertex="1">
          <mxGeometry x="-3269" y="-982" width="200" height="62" as="geometry" />
        </mxCell>
        <mxCell id="b2iUpGE4gWwmAra18Ms8-11" style="edgeStyle=orthogonalEdgeStyle;rounded=0;orthogonalLoop=1;jettySize=auto;html=1;entryX=0.5;entryY=0;entryDx=0;entryDy=0;" edge="1" parent="WIyWlLk6GJQsqaUBKTNV-1" source="t22loXEwvGYVSL7xWseN-4" target="b2iUpGE4gWwmAra18Ms8-10">
          <mxGeometry relative="1" as="geometry" />
        </mxCell>
        <UserObject label="switch&lt;br&gt;speed" Function="EN_DIO_Error_T DIO_init(uint8_t pinNumber, EN_DIO_PORT_T portNumber, EN_DIO_DIRECTION_T direction);" tags="Flowchart" id="t22loXEwvGYVSL7xWseN-4">
          <mxCell style="vsdxID=219;fillColor=#fff2cc;shape=stencil(UzV2Ls5ILEhVNTIoLinKz04tz0wpyVA1dlE1MsrMy0gtyiwBslSNXVWNndPyi1LTi/JL81Ig/IJEkEoQKze/DGRCBUSfAUiHkUElhGcK4bpBVOZk5iGpNEVVikeloQHZpsK0YlWLz1QgA+HFtMycHEgIIcujBwlQCBKcxq4A);strokeColor=#d6b656;spacingTop=-1;spacingBottom=-1;spacingLeft=-1;spacingRight=-1;points=[[0,0.5,0],[1,0.5,0],[0.5,0,0],[0.5,1,0]];labelBackgroundColor=none;rounded=1;html=1;whiteSpace=wrap;fontFamily=Calibri;" parent="WIyWlLk6GJQsqaUBKTNV-1" vertex="1">
            <mxGeometry x="-3250" y="-870" width="135" height="95" as="geometry" />
          </mxCell>
        </UserObject>
        <mxCell id="t22loXEwvGYVSL7xWseN-32" value="&lt;font style=&quot;font-size: 12.5px;&quot;&gt;void LCD_update ( speed,direction,distance )&lt;/font&gt;" style="text;html=1;strokeColor=none;fillColor=none;align=center;verticalAlign=middle;whiteSpace=wrap;rounded=0;" parent="WIyWlLk6GJQsqaUBKTNV-1" vertex="1">
          <mxGeometry x="-2988.75" y="-1110" width="272.5" height="36" as="geometry" />
        </mxCell>
        <UserObject label="&lt;div style=&quot;&quot;&gt;&lt;font style=&quot;direction: ltr; letter-spacing: 0px; line-height: 120%; opacity: 1; font-size: 11.29px;&quot;&gt;end&lt;/font&gt;&lt;/div&gt;" Function="EN_DIO_Error_T DIO_init(uint8_t pinNumber, EN_DIO_PORT_T portNumber, EN_DIO_DIRECTION_T direction);" tags="Flowchart" id="Sz5I-C2nNWflKFqn1XSB-32">
          <mxCell style="verticalAlign=middle;align=center;overflow=width;vsdxID=30;fillColor=#dae8fc;shape=stencil(tVLREoIgEPwaHnEQxsl3s/9gEpSJwDko7e+DsEkze2l627vdu5uFRaxyHe8FosR5sCcxqMZ3iO0Rpcp0ApQPCLEasUpaEC3Yi2lS3fOojOhsr3HDmObyMtsVcYqS29Qh5FEfklwrM5OXeUa/yjkcAwfr7TDpiyTfXvjkMR+Vw2A998qaBac5tAKHU1hq3i4oNwjRr9ofvayt/+Rk+yX/4iWA159KpXWKxJx/z0Bopfyw+g4=);strokeColor=#6c8ebf;spacingTop=-1;spacingBottom=-1;spacingLeft=-1;spacingRight=-1;points=[[0.5,1,0],[0.5,0,0],[0,0.5,0],[1,0.5,0]];labelBackgroundColor=none;rounded=1;html=1;whiteSpace=wrap;fontFamily=Calibri;" parent="WIyWlLk6GJQsqaUBKTNV-1" vertex="1">
            <mxGeometry x="-3125" y="-520" width="101" height="38" as="geometry" />
          </mxCell>
        </UserObject>
        <mxCell id="b2iUpGE4gWwmAra18Ms8-6" value="case 30" style="endArrow=classic;html=1;rounded=0;" edge="1" parent="WIyWlLk6GJQsqaUBKTNV-1">
          <mxGeometry x="0.1429" y="11" width="50" height="50" relative="1" as="geometry">
            <mxPoint x="-3181.25" y="-737.5" as="sourcePoint" />
            <mxPoint x="-3111.25" y="-737.5" as="targetPoint" />
            <mxPoint y="1" as="offset" />
          </mxGeometry>
        </mxCell>
        <mxCell id="b2iUpGE4gWwmAra18Ms8-7" value="case 50" style="endArrow=classic;html=1;rounded=0;" edge="1" parent="WIyWlLk6GJQsqaUBKTNV-1">
          <mxGeometry x="0.1429" y="11" width="50" height="50" relative="1" as="geometry">
            <mxPoint x="-3181" y="-677.5" as="sourcePoint" />
            <mxPoint x="-3111" y="-677.5" as="targetPoint" />
            <mxPoint y="1" as="offset" />
          </mxGeometry>
        </mxCell>
        <mxCell id="b2iUpGE4gWwmAra18Ms8-13" style="edgeStyle=orthogonalEdgeStyle;rounded=0;orthogonalLoop=1;jettySize=auto;html=1;entryX=0;entryY=0.5;entryDx=0;entryDy=0;" edge="1" parent="WIyWlLk6GJQsqaUBKTNV-1" source="b2iUpGE4gWwmAra18Ms8-8" target="b2iUpGE4gWwmAra18Ms8-12">
          <mxGeometry relative="1" as="geometry" />
        </mxCell>
        <mxCell id="b2iUpGE4gWwmAra18Ms8-8" value="&lt;font style=&quot;font-size: 11.29px;&quot;&gt;Display(&quot;30&quot;)&lt;br&gt;&lt;/font&gt;" style="rounded=0;whiteSpace=wrap;html=1;fontSize=16;fillColor=#d5e8d4;strokeColor=#82b366;" vertex="1" parent="WIyWlLk6GJQsqaUBKTNV-1">
          <mxGeometry x="-3111.5" y="-757.5" width="131" height="40" as="geometry" />
        </mxCell>
        <mxCell id="b2iUpGE4gWwmAra18Ms8-14" style="edgeStyle=orthogonalEdgeStyle;rounded=0;orthogonalLoop=1;jettySize=auto;html=1;exitX=1;exitY=0.5;exitDx=0;exitDy=0;" edge="1" parent="WIyWlLk6GJQsqaUBKTNV-1" source="b2iUpGE4gWwmAra18Ms8-9">
          <mxGeometry relative="1" as="geometry">
            <mxPoint x="-2950" y="-740" as="targetPoint" />
          </mxGeometry>
        </mxCell>
        <mxCell id="b2iUpGE4gWwmAra18Ms8-9" value="&lt;font style=&quot;font-size: 11.29px;&quot;&gt;Display(&quot;50&quot;)&lt;br&gt;&lt;/font&gt;" style="rounded=0;whiteSpace=wrap;html=1;fontSize=16;fillColor=#d5e8d4;strokeColor=#82b366;" vertex="1" parent="WIyWlLk6GJQsqaUBKTNV-1">
          <mxGeometry x="-3112.5" y="-696.5" width="131" height="40" as="geometry" />
        </mxCell>
        <mxCell id="b2iUpGE4gWwmAra18Ms8-15" style="edgeStyle=orthogonalEdgeStyle;rounded=0;orthogonalLoop=1;jettySize=auto;html=1;exitX=1;exitY=0.5;exitDx=0;exitDy=0;" edge="1" parent="WIyWlLk6GJQsqaUBKTNV-1" source="b2iUpGE4gWwmAra18Ms8-10">
          <mxGeometry relative="1" as="geometry">
            <mxPoint x="-2950" y="-680" as="targetPoint" />
          </mxGeometry>
        </mxCell>
        <mxCell id="b2iUpGE4gWwmAra18Ms8-10" value="&lt;font style=&quot;font-size: 11.29px;&quot;&gt;Display(&quot;00&quot;)&lt;br&gt;&lt;/font&gt;" style="rounded=0;whiteSpace=wrap;html=1;fontSize=16;fillColor=#d5e8d4;strokeColor=#82b366;" vertex="1" parent="WIyWlLk6GJQsqaUBKTNV-1">
          <mxGeometry x="-3248" y="-624" width="131" height="40" as="geometry" />
        </mxCell>
        <mxCell id="b2iUpGE4gWwmAra18Ms8-17" style="edgeStyle=orthogonalEdgeStyle;rounded=0;orthogonalLoop=1;jettySize=auto;html=1;exitX=0.5;exitY=1;exitDx=0;exitDy=0;entryX=0.5;entryY=0;entryDx=0;entryDy=0;entryPerimeter=0;" edge="1" parent="WIyWlLk6GJQsqaUBKTNV-1" source="b2iUpGE4gWwmAra18Ms8-12" target="b2iUpGE4gWwmAra18Ms8-16">
          <mxGeometry relative="1" as="geometry" />
        </mxCell>
        <mxCell id="b2iUpGE4gWwmAra18Ms8-12" value="&lt;font style=&quot;font-size: 11.29px;&quot;&gt;setCursor(0,11)&lt;br&gt;Display(&quot;Dir:&quot;)&lt;br&gt;setCursor(0,15)&lt;br&gt;&lt;/font&gt;" style="rounded=0;whiteSpace=wrap;html=1;fontSize=16;fillColor=#d5e8d4;strokeColor=#82b366;" vertex="1" parent="WIyWlLk6GJQsqaUBKTNV-1">
          <mxGeometry x="-2920" y="-880" width="200" height="62" as="geometry" />
        </mxCell>
        <UserObject label="switch&lt;br&gt;direction" Function="EN_DIO_Error_T DIO_init(uint8_t pinNumber, EN_DIO_PORT_T portNumber, EN_DIO_DIRECTION_T direction);" tags="Flowchart" id="b2iUpGE4gWwmAra18Ms8-16">
          <mxCell style="vsdxID=219;fillColor=#fff2cc;shape=stencil(UzV2Ls5ILEhVNTIoLinKz04tz0wpyVA1dlE1MsrMy0gtyiwBslSNXVWNndPyi1LTi/JL81Ig/IJEkEoQKze/DGRCBUSfAUiHkUElhGcK4bpBVOZk5iGpNEVVikeloQHZpsK0YlWLz1QgA+HFtMycHEgIIcujBwlQCBKcxq4A);strokeColor=#d6b656;spacingTop=-1;spacingBottom=-1;spacingLeft=-1;spacingRight=-1;points=[[0,0.5,0],[1,0.5,0],[0.5,0,0],[0.5,1,0]];labelBackgroundColor=none;rounded=1;html=1;whiteSpace=wrap;fontFamily=Calibri;" vertex="1" parent="WIyWlLk6GJQsqaUBKTNV-1">
            <mxGeometry x="-2887.5" y="-757.5" width="135" height="95" as="geometry" />
          </mxCell>
        </UserObject>
        <mxCell id="b2iUpGE4gWwmAra18Ms8-18" style="edgeStyle=orthogonalEdgeStyle;rounded=0;orthogonalLoop=1;jettySize=auto;html=1;entryX=0.5;entryY=0;entryDx=0;entryDy=0;" edge="1" target="b2iUpGE4gWwmAra18Ms8-23" parent="WIyWlLk6GJQsqaUBKTNV-1">
          <mxGeometry relative="1" as="geometry">
            <mxPoint x="-2821.5" y="-662.5" as="sourcePoint" />
          </mxGeometry>
        </mxCell>
        <mxCell id="b2iUpGE4gWwmAra18Ms8-19" value="case Forward" style="endArrow=classic;html=1;rounded=0;" edge="1" parent="WIyWlLk6GJQsqaUBKTNV-1">
          <mxGeometry x="0.0074" y="15" width="50" height="50" relative="1" as="geometry">
            <mxPoint x="-2820.75" y="-625" as="sourcePoint" />
            <mxPoint x="-2720" y="-625" as="targetPoint" />
            <mxPoint as="offset" />
          </mxGeometry>
        </mxCell>
        <mxCell id="b2iUpGE4gWwmAra18Ms8-31" style="edgeStyle=orthogonalEdgeStyle;rounded=0;orthogonalLoop=1;jettySize=auto;html=1;exitX=1;exitY=0.5;exitDx=0;exitDy=0;entryX=1;entryY=0.5;entryDx=0;entryDy=0;" edge="1" parent="WIyWlLk6GJQsqaUBKTNV-1" source="b2iUpGE4gWwmAra18Ms8-21" target="b2iUpGE4gWwmAra18Ms8-28">
          <mxGeometry relative="1" as="geometry">
            <mxPoint x="-2690" y="-360" as="targetPoint" />
            <Array as="points">
              <mxPoint x="-2530" y="-625" />
              <mxPoint x="-2530" y="-289" />
            </Array>
          </mxGeometry>
        </mxCell>
        <mxCell id="b2iUpGE4gWwmAra18Ms8-21" value="&lt;font style=&quot;font-size: 11.29px;&quot;&gt;Display(&quot;F&quot;)&lt;br&gt;&lt;/font&gt;" style="rounded=0;whiteSpace=wrap;html=1;fontSize=16;fillColor=#d5e8d4;strokeColor=#82b366;" vertex="1" parent="WIyWlLk6GJQsqaUBKTNV-1">
          <mxGeometry x="-2720" y="-645" width="131" height="40" as="geometry" />
        </mxCell>
        <mxCell id="b2iUpGE4gWwmAra18Ms8-32" style="edgeStyle=orthogonalEdgeStyle;rounded=0;orthogonalLoop=1;jettySize=auto;html=1;exitX=0.5;exitY=1;exitDx=0;exitDy=0;" edge="1" parent="WIyWlLk6GJQsqaUBKTNV-1" source="b2iUpGE4gWwmAra18Ms8-23" target="b2iUpGE4gWwmAra18Ms8-28">
          <mxGeometry relative="1" as="geometry" />
        </mxCell>
        <mxCell id="b2iUpGE4gWwmAra18Ms8-23" value="&lt;font style=&quot;font-size: 11.29px;&quot;&gt;Display(&quot;S&quot;)&lt;br&gt;&lt;/font&gt;" style="rounded=0;whiteSpace=wrap;html=1;fontSize=16;fillColor=#d5e8d4;strokeColor=#82b366;" vertex="1" parent="WIyWlLk6GJQsqaUBKTNV-1">
          <mxGeometry x="-2886.5" y="-430" width="131" height="40" as="geometry" />
        </mxCell>
        <mxCell id="b2iUpGE4gWwmAra18Ms8-24" value="case Backward" style="endArrow=classic;html=1;rounded=0;" edge="1" parent="WIyWlLk6GJQsqaUBKTNV-1">
          <mxGeometry x="0.0074" y="15" width="50" height="50" relative="1" as="geometry">
            <mxPoint x="-2820.75" y="-571" as="sourcePoint" />
            <mxPoint x="-2720" y="-571" as="targetPoint" />
            <mxPoint as="offset" />
          </mxGeometry>
        </mxCell>
        <mxCell id="b2iUpGE4gWwmAra18Ms8-33" style="edgeStyle=orthogonalEdgeStyle;rounded=0;orthogonalLoop=1;jettySize=auto;html=1;" edge="1" parent="WIyWlLk6GJQsqaUBKTNV-1" source="b2iUpGE4gWwmAra18Ms8-25">
          <mxGeometry relative="1" as="geometry">
            <mxPoint x="-2530" y="-571" as="targetPoint" />
          </mxGeometry>
        </mxCell>
        <mxCell id="b2iUpGE4gWwmAra18Ms8-25" value="&lt;font style=&quot;font-size: 11.29px;&quot;&gt;Display(&quot;B&quot;)&lt;br&gt;&lt;/font&gt;" style="rounded=0;whiteSpace=wrap;html=1;fontSize=16;fillColor=#d5e8d4;strokeColor=#82b366;" vertex="1" parent="WIyWlLk6GJQsqaUBKTNV-1">
          <mxGeometry x="-2720" y="-591" width="131" height="40" as="geometry" />
        </mxCell>
        <mxCell id="b2iUpGE4gWwmAra18Ms8-26" value="case Rotation" style="endArrow=classic;html=1;rounded=0;" edge="1" parent="WIyWlLk6GJQsqaUBKTNV-1">
          <mxGeometry x="0.0074" y="15" width="50" height="50" relative="1" as="geometry">
            <mxPoint x="-2820.75" y="-520" as="sourcePoint" />
            <mxPoint x="-2720" y="-520" as="targetPoint" />
            <mxPoint as="offset" />
          </mxGeometry>
        </mxCell>
        <mxCell id="b2iUpGE4gWwmAra18Ms8-34" style="edgeStyle=orthogonalEdgeStyle;rounded=0;orthogonalLoop=1;jettySize=auto;html=1;" edge="1" parent="WIyWlLk6GJQsqaUBKTNV-1" source="b2iUpGE4gWwmAra18Ms8-27">
          <mxGeometry relative="1" as="geometry">
            <mxPoint x="-2530" y="-520" as="targetPoint" />
          </mxGeometry>
        </mxCell>
        <mxCell id="b2iUpGE4gWwmAra18Ms8-27" value="&lt;font style=&quot;font-size: 11.29px;&quot;&gt;Display(&quot;R&quot;)&lt;br&gt;&lt;/font&gt;" style="rounded=0;whiteSpace=wrap;html=1;fontSize=16;fillColor=#d5e8d4;strokeColor=#82b366;" vertex="1" parent="WIyWlLk6GJQsqaUBKTNV-1">
          <mxGeometry x="-2720" y="-540" width="131" height="40" as="geometry" />
        </mxCell>
        <mxCell id="b2iUpGE4gWwmAra18Ms8-36" style="edgeStyle=orthogonalEdgeStyle;rounded=0;orthogonalLoop=1;jettySize=auto;html=1;exitX=0;exitY=0.5;exitDx=0;exitDy=0;entryX=1;entryY=0.5;entryDx=0;entryDy=0;" edge="1" parent="WIyWlLk6GJQsqaUBKTNV-1" source="b2iUpGE4gWwmAra18Ms8-28" target="b2iUpGE4gWwmAra18Ms8-35">
          <mxGeometry relative="1" as="geometry" />
        </mxCell>
        <mxCell id="b2iUpGE4gWwmAra18Ms8-28" value="&lt;font style=&quot;font-size: 11.29px;&quot;&gt;setCursor(1,0)&lt;br&gt;Display(&quot;Dist:&quot;)&lt;br&gt;setCursor(1,5)&lt;br&gt;&lt;/font&gt;" style="rounded=0;whiteSpace=wrap;html=1;fontSize=16;fillColor=#d5e8d4;strokeColor=#82b366;" vertex="1" parent="WIyWlLk6GJQsqaUBKTNV-1">
          <mxGeometry x="-2894" y="-320" width="200" height="62" as="geometry" />
        </mxCell>
        <mxCell id="b2iUpGE4gWwmAra18Ms8-38" style="edgeStyle=orthogonalEdgeStyle;rounded=0;orthogonalLoop=1;jettySize=auto;html=1;entryX=0.5;entryY=1;entryDx=0;entryDy=0;" edge="1" parent="WIyWlLk6GJQsqaUBKTNV-1" source="b2iUpGE4gWwmAra18Ms8-35" target="b2iUpGE4gWwmAra18Ms8-37">
          <mxGeometry relative="1" as="geometry" />
        </mxCell>
        <mxCell id="b2iUpGE4gWwmAra18Ms8-35" value="&lt;font style=&quot;font-size: 11.29px;&quot;&gt;DispalyNumber(distance)&lt;br&gt;&lt;/font&gt;" style="rounded=0;whiteSpace=wrap;html=1;fontSize=16;fillColor=#d5e8d4;strokeColor=#82b366;" vertex="1" parent="WIyWlLk6GJQsqaUBKTNV-1">
          <mxGeometry x="-3140" y="-309" width="131" height="40" as="geometry" />
        </mxCell>
        <mxCell id="b2iUpGE4gWwmAra18Ms8-39" style="edgeStyle=orthogonalEdgeStyle;rounded=0;orthogonalLoop=1;jettySize=auto;html=1;entryX=0.5;entryY=1;entryDx=0;entryDy=0;entryPerimeter=0;" edge="1" parent="WIyWlLk6GJQsqaUBKTNV-1" source="b2iUpGE4gWwmAra18Ms8-37" target="Sz5I-C2nNWflKFqn1XSB-32">
          <mxGeometry relative="1" as="geometry" />
        </mxCell>
        <mxCell id="b2iUpGE4gWwmAra18Ms8-37" value="&lt;font style=&quot;font-size: 11.29px;&quot;&gt;Display(&quot; Cm&quot;)&lt;br&gt;&lt;/font&gt;" style="rounded=0;whiteSpace=wrap;html=1;fontSize=16;fillColor=#d5e8d4;strokeColor=#82b366;" vertex="1" parent="WIyWlLk6GJQsqaUBKTNV-1">
          <mxGeometry x="-3140" y="-400" width="131" height="40" as="geometry" />
        </mxCell>
      </root>
    </mxGraphModel>
  </diagram>
</mxfile>
